{"accessors":[{"bufferView":0,"byteOffset":0,"componentType":5123,"count":1728,"type":"SCALAR"},{"bufferView":1,"byteOffset":0,"componentType":5126,"count":375,"max":[0.107719942927361,0.0578570924699306,0.109504990279675],"min":[-0.10992319881916,-0.02589204721153,-0.10950501263142],"type":"VEC3"},{"bufferView":2,"byteOffset":0,"componentType":5126,"count":375,"type":"VEC3"},{"bufferView":3,"byteOffset":0,"componentType":5126,"count":375,"type":"VEC2"}],"asset":{"generator":"FBX2glTF v0.13.0","version":"2.0"},"bufferViews":[{"buffer":0,"byteLength":3456,"byteOffset":0,"target":34963},{"buffer":0,"byteLength":4500,"byteOffset":3456,"target":34962},{"buffer":0,"byteLength":4500,"byteOffset":7956,"target":34962},{"buffer":0,"byteLength":3000,"byteOffset":12456,"target":34962}],"buffers":[{"byteLength":15456,"uri":"Bread top.bin"}],"images":[{"name":"Bread_Normal","uri":"Textures/Bread_Normal.png"},{"name":"Bread_AlbedoTransparency","uri":"Textures/Bread_AlbedoTransparency.png"}],"materials":[{"alphaMode":"OPAQUE","doubleSided":false,"extras":{"fromFBX":{"isTruePBR":false,"shadingModel":"Phong"}},"name":"Bread","normalTexture":{"index":0,"texCoord":0},"pbrMetallicRoughness":{"baseColorFactor":[1,1,1,1],"baseColorTexture":{"index":1,"texCoord":0},"metallicFactor":0.400000005960464,"roughnessFactor":0.272165536880493}}],"meshes":[{"name":"bread for burger top","primitives":[{"attributes":{"NORMAL":2,"POSITION":1,"TEXCOORD_0":3},"indices":0,"material":0,"mode":4}]}],"nodes":[{"mesh":0,"name":"bread for burger top","originalUnits":0.00999999977648258,"pivot":[0,0,0],"rotation":[0,0,0,1],"scale":[1,1,1],"translation":[0,0,0]}],"samplers":[{}],"scene":0,"scenes":[{"name":"Root Scene","nodes":[0]}],"textures":[{"name":"normalmap_texture","sampler":0,"source":0},{"name":"base_color_texture","sampler":0,"source":1}]}