{"accessors":[{"bufferView":0,"byteOffset":0,"componentType":5123,"count":1536,"type":"SCALAR"},{"bufferView":1,"byteOffset":0,"componentType":5126,"count":338,"max":[0.108322635293007,0.0177964773029089,0.109505005180836],"min":[-0.10934824496508,-0.03691487386823,-0.10950500518084],"type":"VEC3"},{"bufferView":2,"byteOffset":0,"componentType":5126,"count":338,"type":"VEC3"},{"bufferView":3,"byteOffset":0,"componentType":5126,"count":338,"type":"VEC2"}],"asset":{"generator":"FBX2glTF v0.13.0","version":"2.0"},"bufferViews":[{"buffer":0,"byteLength":3072,"byteOffset":0,"target":34963},{"buffer":0,"byteLength":4056,"byteOffset":3072,"target":34962},{"buffer":0,"byteLength":4056,"byteOffset":7128,"target":34962},{"buffer":0,"byteLength":2704,"byteOffset":11184,"target":34962}],"buffers":[{"byteLength":13888,"uri":"Bread bottom.bin"}],"images":[{"name":"Bread_Normal","uri":"Textures/Bread_Normal.png"},{"name":"Bread_AlbedoTransparency","uri":"Textures/Bread_AlbedoTransparency.png"}],"materials":[{"alphaMode":"OPAQUE","doubleSided":false,"extras":{"fromFBX":{"isTruePBR":false,"shadingModel":"Phong"}},"name":"Bread","normalTexture":{"index":0,"texCoord":0},"pbrMetallicRoughness":{"baseColorFactor":[1,1,1,1],"baseColorTexture":{"index":1,"texCoord":0},"metallicFactor":0.400000005960464,"roughnessFactor":0.272165536880493}}],"meshes":[{"name":"bread for burget bottom","primitives":[{"attributes":{"NORMAL":2,"POSITION":1,"TEXCOORD_0":3},"indices":0,"material":0,"mode":4}]}],"nodes":[{"mesh":0,"name":"bread for burget bottom","originalUnits":0.00999999977648258,"pivot":[0,0,0],"rotation":[0,0,0,1],"scale":[1,1,1],"translation":[0,0,0]}],"samplers":[{}],"scene":0,"scenes":[{"name":"Root Scene","nodes":[0]}],"textures":[{"name":"normalmap_texture","sampler":0,"source":0},{"name":"base_color_texture","sampler":0,"source":1}]}