{"accessors":[{"bufferView":0,"byteOffset":0,"componentType":5123,"count":4590,"type":"SCALAR"},{"bufferView":1,"byteOffset":0,"componentType":5126,"count":1545,"max":[0.274969547986984,0.184847041964531,0.0951099395751953],"min":[-0.26823991537094,-0.00827190931886,-0.24853938817978],"type":"VEC3"},{"bufferView":2,"byteOffset":0,"componentType":5126,"count":1545,"type":"VEC3"},{"bufferView":3,"byteOffset":0,"componentType":5126,"count":1545,"type":"VEC2"}],"asset":{"generator":"FBX2glTF v0.13.0","version":"2.0"},"bufferViews":[{"buffer":0,"byteLength":9180,"byteOffset":0,"target":34963},{"buffer":0,"byteLength":18540,"byteOffset":9180,"target":34962},{"buffer":0,"byteLength":18540,"byteOffset":27720,"target":34962},{"buffer":0,"byteLength":12360,"byteOffset":46260,"target":34962}],"buffers":[{"byteLength":58620,"uri":"Cabbage.bin"}],"images":[{"name":"Lettuce_Normal","uri":"Textures/Lettuce_Normal.png"},{"name":"Lettuce_AlbedoTransparency","uri":"Textures/Lettuce_AlbedoTransparency.png"}],"materials":[{"alphaMode":"OPAQUE","doubleSided":false,"extras":{"fromFBX":{"isTruePBR":false,"shadingModel":"Phong"}},"name":"Lettuce","normalTexture":{"index":0,"texCoord":0},"pbrMetallicRoughness":{"baseColorFactor":[1,1,1,1],"baseColorTexture":{"index":1,"texCoord":0},"metallicFactor":0.400000005960464,"roughnessFactor":0.272165536880493}}],"meshes":[{"name":"Lettuce","primitives":[{"attributes":{"NORMAL":2,"POSITION":1,"TEXCOORD_0":3},"indices":0,"material":0,"mode":4}]}],"nodes":[{"mesh":0,"name":"Lettuce","originalUnits":0.00999999977648258,"pivot":[0,0,0],"rotation":[0.253416448831558,0.315491080284119,-0.08783501386642,0.910236477851868],"scale":[0.562193095684052,0.935413479804993,0.69911116361618],"translation":[0,0,0]}],"samplers":[{}],"scene":0,"scenes":[{"name":"Root Scene","nodes":[0]}],"textures":[{"name":"normalmap_texture","sampler":0,"source":0},{"name":"base_color_texture","sampler":0,"source":1}]}