{"accessors":[{"bufferView":0,"byteOffset":0,"componentType":5123,"count":255,"type":"SCALAR"},{"bufferView":1,"byteOffset":0,"componentType":5126,"count":75,"max":[0.0799733772873878,0.00474379071965814,0.0834539756178856],"min":[-0.0706162750721,0.00474375998601317,-0.10272896289825],"type":"VEC3"},{"bufferView":2,"byteOffset":0,"componentType":5126,"count":75,"type":"VEC3"},{"bufferView":3,"byteOffset":0,"componentType":5126,"count":75,"type":"VEC2"}],"asset":{"generator":"FBX2glTF v0.13.0","version":"2.0"},"bufferViews":[{"buffer":0,"byteLength":510,"byteOffset":0,"target":34963},{"buffer":0,"byteLength":900,"byteOffset":512,"target":34962},{"buffer":0,"byteLength":900,"byteOffset":1412,"target":34962},{"buffer":0,"byteLength":600,"byteOffset":2312,"target":34962}],"buffers":[{"byteLength":2912,"uri":"Cabbage slice_flat.bin"}],"images":[{"name":"Lettuce_Normal","uri":"Textures/Lettuce_Normal.png"},{"name":"Lettuce_AlbedoTransparency","uri":"Textures/Lettuce_AlbedoTransparency.png"}],"materials":[{"alphaMode":"OPAQUE","doubleSided":false,"extras":{"fromFBX":{"isTruePBR":false,"shadingModel":"Phong"}},"name":"Lettuce","normalTexture":{"index":0,"texCoord":0},"pbrMetallicRoughness":{"baseColorFactor":[1,1,1,1],"baseColorTexture":{"index":1,"texCoord":0},"metallicFactor":0.400000005960464,"roughnessFactor":0.272165536880493}}],"meshes":[{"name":"Lettuce slice_flat","primitives":[{"attributes":{"NORMAL":2,"POSITION":1,"TEXCOORD_0":3},"indices":0,"material":0,"mode":4}]}],"nodes":[{"mesh":0,"name":"Lettuce slice_flat","originalUnits":0.00999999977648258,"pivot":[0,0,0],"rotation":[0,0,0,1],"scale":[1,1,1],"translation":[0,0,0]}],"samplers":[{}],"scene":0,"scenes":[{"name":"Root Scene","nodes":[0]}],"textures":[{"name":"normalmap_texture","sampler":0,"source":0},{"name":"base_color_texture","sampler":0,"source":1}]}