{"accessors":[{"bufferView":0,"byteOffset":0,"componentType":5123,"count":1740,"type":"SCALAR"},{"bufferView":1,"byteOffset":0,"componentType":5126,"count":585,"max":[0.114774808287621,0.0661006271839142,0.0687407329678535],"min":[-0.0936940908432,-0.0054733902216,-0.06879483163357],"type":"VEC3"},{"bufferView":2,"byteOffset":0,"componentType":5126,"count":585,"type":"VEC3"},{"bufferView":3,"byteOffset":0,"componentType":5126,"count":585,"type":"VEC2"}],"asset":{"generator":"FBX2glTF v0.13.0","version":"2.0"},"bufferViews":[{"buffer":0,"byteLength":3480,"byteOffset":0,"target":34963},{"buffer":0,"byteLength":7020,"byteOffset":3480,"target":34962},{"buffer":0,"byteLength":7020,"byteOffset":10500,"target":34962},{"buffer":0,"byteLength":4680,"byteOffset":17520,"target":34962}],"buffers":[{"byteLength":22200,"uri":"Cheese block.bin"}],"images":[{"name":"Cheese_Normal","uri":"Textures/Cheese_Normal.png"},{"name":"Cheese_AlbedoTransparency","uri":"Textures/Cheese_AlbedoTransparency.png"}],"materials":[{"alphaMode":"OPAQUE","doubleSided":false,"extras":{"fromFBX":{"isTruePBR":false,"shadingModel":"Phong"}},"name":"Cheese","normalTexture":{"index":0,"texCoord":0},"pbrMetallicRoughness":{"baseColorFactor":[1,1,1,1],"baseColorTexture":{"index":1,"texCoord":0},"metallicFactor":0.400000005960464,"roughnessFactor":0.272165536880493}}],"meshes":[{"name":"cheese block","primitives":[{"attributes":{"NORMAL":2,"POSITION":1,"TEXCOORD_0":3},"indices":0,"material":0,"mode":4}]}],"nodes":[{"mesh":0,"name":"cheese block","originalUnits":0.00999999977648258,"pivot":[0,0,0],"rotation":[0,0,0,1],"scale":[1,1,1],"translation":[0,0,0]}],"samplers":[{}],"scene":0,"scenes":[{"name":"Root Scene","nodes":[0]}],"textures":[{"name":"normalmap_texture","sampler":0,"source":0},{"name":"base_color_texture","sampler":0,"source":1}]}