{"accessors":[{"bufferView":0,"byteOffset":0,"componentType":5123,"count":1824,"type":"SCALAR"},{"bufferView":1,"byteOffset":0,"componentType":5126,"count":614,"max":[0.293125480413437,0.00130104820709676,0.200575664639473],"min":[-0.29312548041344,-0.02012202143669,-0.20057566463947],"type":"VEC3"},{"bufferView":2,"byteOffset":0,"componentType":5126,"count":614,"type":"VEC3"},{"bufferView":3,"byteOffset":0,"componentType":5126,"count":614,"type":"VEC2"}],"asset":{"generator":"FBX2glTF v0.13.0","version":"2.0"},"bufferViews":[{"buffer":0,"byteLength":3648,"byteOffset":0,"target":34963},{"buffer":0,"byteLength":7368,"byteOffset":3648,"target":34962},{"buffer":0,"byteLength":7368,"byteOffset":11016,"target":34962},{"buffer":0,"byteLength":4912,"byteOffset":18384,"target":34962}],"buffers":[{"byteLength":23296,"uri":"Chopping Board.bin"}],"images":[{"name":"Chopping board_Normal","uri":"Textures/Chopping board_Normal.png"},{"name":"Chopping board_AlbedoTransparency","uri":"Textures/Chopping board_AlbedoTransparency.png"}],"materials":[{"alphaMode":"OPAQUE","doubleSided":false,"extras":{"fromFBX":{"isTruePBR":false,"shadingModel":"Phong"}},"name":"Chopping board","normalTexture":{"index":0,"texCoord":0},"pbrMetallicRoughness":{"baseColorFactor":[1,1,1,1],"baseColorTexture":{"index":1,"texCoord":0},"metallicFactor":0.400000005960464,"roughnessFactor":0.272165536880493}}],"meshes":[{"name":"Cube.005","primitives":[{"attributes":{"NORMAL":2,"POSITION":1,"TEXCOORD_0":3},"indices":0,"material":0,"mode":4}]}],"nodes":[{"mesh":0,"name":"Cube.005","originalUnits":0.00999999977648258,"pivot":[0,0,0],"rotation":[0,0,0,1],"scale":[1,1,1],"translation":[0,0,0]}],"samplers":[{}],"scene":0,"scenes":[{"name":"Root Scene","nodes":[0]}],"textures":[{"name":"normalmap_texture","sampler":0,"source":0},{"name":"base_color_texture","sampler":0,"source":1}]}