{"accessors":[{"bufferView":0,"byteOffset":0,"componentType":5123,"count":552,"type":"SCALAR"},{"bufferView":1,"byteOffset":0,"componentType":5126,"count":193,"max":[0.449325084686279,0.839665949344635,0.453970015048981],"min":[-0.44932508468628,-0.00354099273682,-0.41905611753464],"type":"VEC3"},{"bufferView":2,"byteOffset":0,"componentType":5126,"count":193,"type":"VEC3"},{"bufferView":3,"byteOffset":0,"componentType":5126,"count":193,"type":"VEC2"}],"asset":{"generator":"FBX2glTF v0.13.0","version":"2.0"},"bufferViews":[{"buffer":0,"byteLength":1104,"byteOffset":0,"target":34963},{"buffer":0,"byteLength":2316,"byteOffset":1104,"target":34962},{"buffer":0,"byteLength":2316,"byteOffset":3420,"target":34962},{"buffer":0,"byteLength":1544,"byteOffset":5736,"target":34962}],"buffers":[{"byteLength":7280,"uri":"Counter_hole.bin"}],"images":[{"name":"Kitchen Counter_Normal","uri":"Textures/Kitchen Counter_Normal.png"},{"name":"Kitchen Counter_AlbedoTransparency","uri":"Textures/Kitchen Counter_AlbedoTransparency.png"}],"materials":[{"alphaMode":"OPAQUE","doubleSided":false,"extras":{"fromFBX":{"isTruePBR":false,"shadingModel":"Phong"}},"name":"Kitchen Counter","normalTexture":{"index":0,"texCoord":0},"pbrMetallicRoughness":{"baseColorFactor":[1,1,1,1],"baseColorTexture":{"index":1,"texCoord":0},"metallicFactor":0.400000005960464,"roughnessFactor":0.272165536880493}}],"meshes":[{"name":"Counter.001","primitives":[{"attributes":{"NORMAL":2,"POSITION":1,"TEXCOORD_0":3},"indices":0,"material":0,"mode":4}]}],"nodes":[{"mesh":0,"name":"Counter.001","originalUnits":0.00999999977648258,"pivot":[0,0,0],"rotation":[0,0,0,1],"scale":[1,1,1],"translation":[-0.00727438926697,0,0]}],"samplers":[{}],"scene":0,"scenes":[{"name":"Root Scene","nodes":[0]}],"textures":[{"name":"normalmap_texture","sampler":0,"source":0},{"name":"base_color_texture","sampler":0,"source":1}]}