{"accessors":[{"bufferView":0,"byteOffset":0,"componentType":5123,"count":960,"type":"SCALAR"},{"bufferView":1,"byteOffset":0,"componentType":5126,"count":320,"max":[0.391489624977112,0.302861750125885,0.0336550697684288],"min":[-0.3914897441864,-0.30286177992821,-0.04303080588579],"type":"VEC3"},{"bufferView":2,"byteOffset":0,"componentType":5126,"count":320,"type":"VEC3"},{"bufferView":3,"byteOffset":0,"componentType":5126,"count":320,"type":"VEC2"}],"asset":{"generator":"FBX2glTF v0.13.0","version":"2.0"},"bufferViews":[{"buffer":0,"byteLength":1920,"byteOffset":0,"target":34963},{"buffer":0,"byteLength":3840,"byteOffset":1920,"target":34962},{"buffer":0,"byteLength":3840,"byteOffset":5760,"target":34962},{"buffer":0,"byteLength":2560,"byteOffset":9600,"target":34962}],"buffers":[{"byteLength":12160,"uri":"Double doors.bin"}],"images":[{"name":"Kitchen Counter_Normal","uri":"Textures/Kitchen Counter_Normal.png"},{"name":"Kitchen Counter_AlbedoTransparency","uri":"Textures/Kitchen Counter_AlbedoTransparency.png"}],"materials":[{"alphaMode":"OPAQUE","doubleSided":false,"extras":{"fromFBX":{"isTruePBR":false,"shadingModel":"Phong"}},"name":"Kitchen Counter","normalTexture":{"index":0,"texCoord":0},"pbrMetallicRoughness":{"baseColorFactor":[1,1,1,1],"baseColorTexture":{"index":1,"texCoord":0},"metallicFactor":0.400000005960464,"roughnessFactor":0.272165536880493}}],"meshes":[{"name":"Counter.002","primitives":[{"attributes":{"NORMAL":2,"POSITION":1,"TEXCOORD_0":3},"indices":0,"material":0,"mode":4}]}],"nodes":[{"mesh":0,"name":"Counter.002","originalUnits":0.00999999977648258,"pivot":[0,0,0],"rotation":[0,0,0,1],"scale":[1,1,1],"translation":[0.0292496681213379,0.370474606752396,0.0206851046532393]}],"samplers":[{}],"scene":0,"scenes":[{"name":"Root Scene","nodes":[0]}],"textures":[{"name":"normalmap_texture","sampler":0,"source":0},{"name":"base_color_texture","sampler":0,"source":1}]}