{"accessors":[{"bufferView":0,"byteOffset":0,"componentType":5123,"count":1608,"type":"SCALAR"},{"bufferView":1,"byteOffset":0,"componentType":5126,"count":408,"max":[0.21334008872509,0.0943155810236931,0.431764096021652],"min":[-0.21334004402161,-0.00000012310571,-0.21334008872509],"type":"VEC3"},{"bufferView":2,"byteOffset":0,"componentType":5126,"count":408,"type":"VEC3"},{"bufferView":3,"byteOffset":0,"componentType":5126,"count":408,"type":"VEC2"}],"asset":{"generator":"FBX2glTF v0.13.0","version":"2.0"},"bufferViews":[{"buffer":0,"byteLength":3216,"byteOffset":0,"target":34963},{"buffer":0,"byteLength":4896,"byteOffset":3216,"target":34962},{"buffer":0,"byteLength":4896,"byteOffset":8112,"target":34962},{"buffer":0,"byteLength":3264,"byteOffset":13008,"target":34962}],"buffers":[{"byteLength":16272,"uri":"Frying Pan.bin"}],"images":[{"name":"Frying pan_Normal","uri":"Textures/Frying pan_Normal.png"},{"name":"Frying pan_AlbedoTransparency","uri":"Textures/Frying pan_AlbedoTransparency.png"}],"materials":[{"alphaMode":"OPAQUE","doubleSided":false,"extras":{"fromFBX":{"isTruePBR":false,"shadingModel":"Phong"}},"name":"Frying pan","normalTexture":{"index":0,"texCoord":0},"pbrMetallicRoughness":{"baseColorFactor":[1,1,1,1],"baseColorTexture":{"index":1,"texCoord":0},"metallicFactor":0.400000005960464,"roughnessFactor":0.272165536880493}}],"meshes":[{"name":"Cylinder.003","primitives":[{"attributes":{"NORMAL":2,"POSITION":1,"TEXCOORD_0":3},"indices":0,"material":0,"mode":4}]}],"nodes":[{"mesh":0,"name":"Cylinder.003","originalUnits":0.00999999977648258,"pivot":[0,0,0],"rotation":[0,0,0,1],"scale":[1,1,1],"translation":[0,0,0]}],"samplers":[{}],"scene":0,"scenes":[{"name":"Root Scene","nodes":[0]}],"textures":[{"name":"normalmap_texture","sampler":0,"source":0},{"name":"base_color_texture","sampler":0,"source":1}]}