{"accessors":[{"bufferView":0,"byteOffset":0,"componentType":5123,"count":1092,"type":"SCALAR"},{"bufferView":1,"byteOffset":0,"componentType":5126,"count":380,"max":[0.449325084686279,0.839665949344635,0.459236353635788],"min":[-0.44932508468628,-0.00354099273682,-0.41905611753464],"type":"VEC3"},{"bufferView":2,"byteOffset":0,"componentType":5126,"count":380,"type":"VEC3"},{"bufferView":3,"byteOffset":0,"componentType":5126,"count":380,"type":"VEC2"}],"asset":{"generator":"FBX2glTF v0.13.0","version":"2.0"},"bufferViews":[{"buffer":0,"byteLength":2184,"byteOffset":0,"target":34963},{"buffer":0,"byteLength":4560,"byteOffset":2184,"target":34962},{"buffer":0,"byteLength":4560,"byteOffset":6744,"target":34962},{"buffer":0,"byteLength":3040,"byteOffset":11304,"target":34962}],"buffers":[{"byteLength":14344,"uri":"Kitchen Counter.bin"}],"images":[{"name":"Kitchen Counter_Normal","uri":"Textures/Kitchen Counter_Normal.png"},{"name":"Kitchen Counter_AlbedoTransparency","uri":"Textures/Kitchen Counter_AlbedoTransparency.png"}],"materials":[{"alphaMode":"OPAQUE","doubleSided":false,"extras":{"fromFBX":{"isTruePBR":false,"shadingModel":"Phong"}},"name":"Kitchen Counter","normalTexture":{"index":0,"texCoord":0},"pbrMetallicRoughness":{"baseColorFactor":[1,1,1,1],"baseColorTexture":{"index":1,"texCoord":0},"metallicFactor":0.400000005960464,"roughnessFactor":0.272165536880493}}],"meshes":[{"name":"Counter","primitives":[{"attributes":{"NORMAL":2,"POSITION":1,"TEXCOORD_0":3},"indices":0,"material":0,"mode":4}]}],"nodes":[{"mesh":0,"name":"Counter","originalUnits":0.00999999977648258,"pivot":[0,0,0],"rotation":[0,0,0,1],"scale":[1,1,1],"translation":[0.00543338060379028,0,0]}],"samplers":[{}],"scene":0,"scenes":[{"name":"Root Scene","nodes":[0]}],"textures":[{"name":"normalmap_texture","sampler":0,"source":0},{"name":"base_color_texture","sampler":0,"source":1}]}