{"accessors":[{"bufferView":0,"byteOffset":0,"componentType":5123,"count":1542,"type":"SCALAR"},{"bufferView":1,"byteOffset":0,"componentType":5126,"count":499,"max":[0.0287132542580366,0.0101641584187746,0.108479581773281],"min":[-0.05968218296766,-0.00448586186394,-0.43222975730896],"type":"VEC3"},{"bufferView":2,"byteOffset":0,"componentType":5126,"count":499,"type":"VEC3"},{"bufferView":3,"byteOffset":0,"componentType":5126,"count":499,"type":"VEC2"}],"asset":{"generator":"FBX2glTF v0.13.0","version":"2.0"},"bufferViews":[{"buffer":0,"byteLength":3084,"byteOffset":0,"target":34963},{"buffer":0,"byteLength":5988,"byteOffset":3084,"target":34962},{"buffer":0,"byteLength":5988,"byteOffset":9072,"target":34962},{"buffer":0,"byteLength":3992,"byteOffset":15060,"target":34962}],"buffers":[{"byteLength":19052,"uri":"Knife.bin"}],"images":[{"name":"Knife_Normal","uri":"Textures/Knife_Normal.png"},{"name":"Knife_AlbedoTransparency","uri":"Textures/Knife_AlbedoTransparency.png"}],"materials":[{"alphaMode":"OPAQUE","doubleSided":false,"extras":{"fromFBX":{"isTruePBR":false,"shadingModel":"Phong"}},"name":"Knife","normalTexture":{"index":0,"texCoord":0},"pbrMetallicRoughness":{"baseColorFactor":[1,1,1,1],"baseColorTexture":{"index":1,"texCoord":0},"metallicFactor":0.400000005960464,"roughnessFactor":0.272165536880493}}],"meshes":[{"name":"Plane.002","primitives":[{"attributes":{"NORMAL":2,"POSITION":1,"TEXCOORD_0":3},"indices":0,"material":0,"mode":4}]}],"nodes":[{"mesh":0,"name":"Plane.002","originalUnits":0.00999999977648258,"pivot":[0,0,0],"rotation":[0,0,0,1],"scale":[1,1,1],"translation":[0,0,0]}],"samplers":[{}],"scene":0,"scenes":[{"name":"Root Scene","nodes":[0]}],"textures":[{"name":"normalmap_texture","sampler":0,"source":0},{"name":"base_color_texture","sampler":0,"source":1}]}