{"accessors":[{"bufferView":0,"byteOffset":0,"componentType":5123,"count":948,"type":"SCALAR"},{"bufferView":1,"byteOffset":0,"componentType":5126,"count":303,"max":[0.212345764040947,0.0322888717055321,0.212345764040947],"min":[-0.21234576404095,-0.00111129460856,-0.21234576404095],"type":"VEC3"},{"bufferView":2,"byteOffset":0,"componentType":5126,"count":303,"type":"VEC3"},{"bufferView":3,"byteOffset":0,"componentType":5126,"count":303,"type":"VEC2"}],"asset":{"generator":"FBX2glTF v0.13.0","version":"2.0"},"bufferViews":[{"buffer":0,"byteLength":1896,"byteOffset":0,"target":34963},{"buffer":0,"byteLength":3636,"byteOffset":1896,"target":34962},{"buffer":0,"byteLength":3636,"byteOffset":5532,"target":34962},{"buffer":0,"byteLength":2424,"byteOffset":9168,"target":34962}],"buffers":[{"byteLength":11592,"uri":"Plate.bin"}],"images":[{"name":"Plate_Normal","uri":"Textures/Plate_Normal.png"},{"name":"Plate_AlbedoTransparency","uri":"Textures/Plate_AlbedoTransparency.png"}],"materials":[{"alphaMode":"OPAQUE","doubleSided":false,"extras":{"fromFBX":{"isTruePBR":false,"shadingModel":"Phong"}},"name":"Plate","normalTexture":{"index":0,"texCoord":0},"pbrMetallicRoughness":{"baseColorFactor":[1,1,1,1],"baseColorTexture":{"index":1,"texCoord":0},"metallicFactor":0.400000005960464,"roughnessFactor":0.272165536880493}}],"meshes":[{"name":"plate","primitives":[{"attributes":{"NORMAL":2,"POSITION":1,"TEXCOORD_0":3},"indices":0,"material":0,"mode":4}]}],"nodes":[{"mesh":0,"name":"plate","originalUnits":0.00999999977648258,"pivot":[0,0,0],"rotation":[0,0,0,1],"scale":[1,1,1],"translation":[0,0,0]}],"samplers":[{}],"scene":0,"scenes":[{"name":"Root Scene","nodes":[0]}],"textures":[{"name":"normalmap_texture","sampler":0,"source":0},{"name":"base_color_texture","sampler":0,"source":1}]}