{"accessors":[{"bufferView":0,"byteOffset":0,"componentType":5123,"count":480,"type":"SCALAR"},{"bufferView":1,"byteOffset":0,"componentType":5126,"count":160,"max":[0.373868316411972,0.302861779928207,0.0672910735011101],"min":[-0.01339250802994,-0.30286175012589,-0.00939479470253],"type":"VEC3"},{"bufferView":2,"byteOffset":0,"componentType":5126,"count":160,"type":"VEC3"},{"bufferView":3,"byteOffset":0,"componentType":5126,"count":160,"type":"VEC2"}],"asset":{"generator":"FBX2glTF v0.13.0","version":"2.0"},"bufferViews":[{"buffer":0,"byteLength":960,"byteOffset":0,"target":34963},{"buffer":0,"byteLength":1920,"byteOffset":960,"target":34962},{"buffer":0,"byteLength":1920,"byteOffset":2880,"target":34962},{"buffer":0,"byteLength":1280,"byteOffset":4800,"target":34962}],"buffers":[{"byteLength":6080,"uri":"Single door.bin"}],"images":[{"name":"Kitchen Counter_Normal","uri":"Textures/Kitchen Counter_Normal.png"},{"name":"Kitchen Counter_AlbedoTransparency","uri":"Textures/Kitchen Counter_AlbedoTransparency.png"}],"materials":[{"alphaMode":"OPAQUE","doubleSided":false,"extras":{"fromFBX":{"isTruePBR":false,"shadingModel":"Phong"}},"name":"Kitchen Counter","normalTexture":{"index":0,"texCoord":0},"pbrMetallicRoughness":{"baseColorFactor":[1,1,1,1],"baseColorTexture":{"index":1,"texCoord":0},"metallicFactor":0.400000005960464,"roughnessFactor":0.272165536880493}}],"meshes":[{"name":"Counter.004","primitives":[{"attributes":{"NORMAL":2,"POSITION":1,"TEXCOORD_0":3},"indices":0,"material":0,"mode":4}]}],"nodes":[{"mesh":0,"name":"Counter.004","originalUnits":0.00999999977648258,"pivot":[0,0,0],"rotation":[0,0,0,1],"scale":[1,1,1],"translation":[0.0147596597671509,0.370474606752396,0.00262206792831421]}],"samplers":[{}],"scene":0,"scenes":[{"name":"Root Scene","nodes":[0]}],"textures":[{"name":"normalmap_texture","sampler":0,"source":0},{"name":"base_color_texture","sampler":0,"source":1}]}