{"accessors":[{"bufferView":0,"byteOffset":0,"componentType":5123,"count":1662,"type":"SCALAR"},{"bufferView":1,"byteOffset":0,"componentType":5126,"count":478,"max":[0.275496929883957,-0.01369778718799,0.358563423156738],"min":[-0.27549692988396,-0.11348906159401,-0.36441358923912],"type":"VEC3"},{"bufferView":2,"byteOffset":0,"componentType":5126,"count":478,"type":"VEC3"},{"bufferView":3,"byteOffset":0,"componentType":5126,"count":478,"type":"VEC2"}],"asset":{"generator":"FBX2glTF v0.13.0","version":"2.0"},"bufferViews":[{"buffer":0,"byteLength":3324,"byteOffset":0,"target":34963},{"buffer":0,"byteLength":5736,"byteOffset":3324,"target":34962},{"buffer":0,"byteLength":5736,"byteOffset":9060,"target":34962},{"buffer":0,"byteLength":3824,"byteOffset":14796,"target":34962}],"buffers":[{"byteLength":18620,"uri":"Stove Counter.bin"}],"images":[{"name":"Stove_Normal","uri":"Textures/Stove_Normal.png"},{"name":"Stove_AlbedoTransparency","uri":"Textures/Stove_AlbedoTransparency.png"}],"materials":[{"alphaMode":"OPAQUE","doubleSided":false,"extras":{"fromFBX":{"isTruePBR":false,"shadingModel":"Phong"}},"name":"Stove","normalTexture":{"index":0,"texCoord":0},"pbrMetallicRoughness":{"baseColorFactor":[1,1,1,1],"baseColorTexture":{"index":1,"texCoord":0},"metallicFactor":0.400000005960464,"roughnessFactor":0.272165536880493}}],"meshes":[{"name":"Cube.004","primitives":[{"attributes":{"NORMAL":2,"POSITION":1,"TEXCOORD_0":3},"indices":0,"material":0,"mode":4}]}],"nodes":[{"mesh":0,"name":"Cube.004","originalUnits":0.00999999977648258,"pivot":[0,0,0],"rotation":[0,0,0,1],"scale":[1,1,1],"translation":[0,0,0]}],"samplers":[{}],"scene":0,"scenes":[{"name":"Root Scene","nodes":[0]}],"textures":[{"name":"normalmap_texture","sampler":0,"source":0},{"name":"base_color_texture","sampler":0,"source":1}]}