{"accessors":[{"bufferView":0,"byteOffset":0,"componentType":5123,"count":372,"type":"SCALAR"},{"bufferView":1,"byteOffset":0,"componentType":5126,"count":224,"max":[0.0682888552546501,0.00440493877977133,0.0682888552546501],"min":[-0.06828885525465,-0.00440493877977,-0.06828885525465],"type":"VEC3"},{"bufferView":2,"byteOffset":0,"componentType":5126,"count":224,"type":"VEC3"},{"bufferView":3,"byteOffset":0,"componentType":5126,"count":224,"type":"VEC2"}],"asset":{"generator":"FBX2glTF v0.13.0","version":"2.0"},"bufferViews":[{"buffer":0,"byteLength":744,"byteOffset":0,"target":34963},{"buffer":0,"byteLength":2688,"byteOffset":744,"target":34962},{"buffer":0,"byteLength":2688,"byteOffset":3432,"target":34962},{"buffer":0,"byteLength":1792,"byteOffset":6120,"target":34962}],"buffers":[{"byteLength":7912,"uri":"Tomato slice.bin"}],"images":[{"name":"Tomato_Normal","uri":"textures/Tomato_Normal.png"},{"name":"Tomato_AlbedoTransparency","uri":"textures/Tomato_AlbedoTransparency.png"}],"materials":[{"alphaMode":"OPAQUE","doubleSided":false,"extras":{"fromFBX":{"isTruePBR":false,"shadingModel":"Phong"}},"name":"Tomato","normalTexture":{"index":0,"texCoord":0},"pbrMetallicRoughness":{"baseColorFactor":[1,1,1,1],"baseColorTexture":{"index":1,"texCoord":0},"metallicFactor":0.400000005960464,"roughnessFactor":0.272165536880493}}],"meshes":[{"name":"Tomato slice","primitives":[{"attributes":{"NORMAL":2,"POSITION":1,"TEXCOORD_0":3},"indices":0,"material":0,"mode":4}]}],"nodes":[{"mesh":0,"name":"Tomato slice","originalUnits":0.00999999977648258,"pivot":[0,0,0],"rotation":[0,0,0,1],"scale":[1,1,1],"translation":[0,0,0]}],"samplers":[{}],"scene":0,"scenes":[{"name":"Root Scene","nodes":[0]}],"textures":[{"name":"normalmap_texture","sampler":0,"source":0},{"name":"base_color_texture","sampler":0,"source":1}]}