{"accessors":[{"bufferView":0,"byteOffset":0,"componentType":5123,"count":2388,"type":"SCALAR"},{"bufferView":1,"byteOffset":0,"componentType":5126,"count":653,"max":[0.0703945532441139,0.13744729757309,0.070394329726696],"min":[-0.07039426267147,-0.00166603084654,-0.07039446383715],"type":"VEC3"},{"bufferView":2,"byteOffset":0,"componentType":5126,"count":653,"type":"VEC3"},{"bufferView":3,"byteOffset":0,"componentType":5126,"count":653,"type":"VEC2"}],"asset":{"generator":"FBX2glTF v0.13.0","version":"2.0"},"bufferViews":[{"buffer":0,"byteLength":4776,"byteOffset":0,"target":34963},{"buffer":0,"byteLength":7836,"byteOffset":4776,"target":34962},{"buffer":0,"byteLength":7836,"byteOffset":12612,"target":34962},{"buffer":0,"byteLength":5224,"byteOffset":20448,"target":34962}],"buffers":[{"byteLength":25672,"uri":"Tomato.bin"}],"images":[{"name":"Tomato_Normal","uri":"textures/Tomato_Normal.png"},{"name":"Tomato_AlbedoTransparency","uri":"textures/Tomato_AlbedoTransparency.png"}],"materials":[{"alphaMode":"OPAQUE","doubleSided":false,"extras":{"fromFBX":{"isTruePBR":false,"shadingModel":"Phong"}},"name":"Tomato","normalTexture":{"index":0,"texCoord":0},"pbrMetallicRoughness":{"baseColorFactor":[1,1,1,1],"baseColorTexture":{"index":1,"texCoord":0},"metallicFactor":0.400000005960464,"roughnessFactor":0.272165536880493}}],"meshes":[{"name":"Tomato","primitives":[{"attributes":{"NORMAL":2,"POSITION":1,"TEXCOORD_0":3},"indices":0,"material":0,"mode":4}]}],"nodes":[{"mesh":0,"name":"Tomato","originalUnits":0.00999999977648258,"pivot":[0,0,0],"rotation":[0,0,0,1],"scale":[1,1,1],"translation":[0,0,0]}],"samplers":[{}],"scene":0,"scenes":[{"name":"Root Scene","nodes":[0]}],"textures":[{"name":"normalmap_texture","sampler":0,"source":0},{"name":"base_color_texture","sampler":0,"source":1}]}