{"accessors":[{"bufferView":0,"byteOffset":0,"componentType":5123,"count":2001,"type":"SCALAR"},{"bufferView":1,"byteOffset":0,"componentType":5126,"count":561,"max":[0.265634089708328,0.474834471940994,0.258858054876328],"min":[-0.25999963283539,0,-0.26377910375595],"type":"VEC3"},{"bufferView":2,"byteOffset":0,"componentType":5126,"count":561,"type":"VEC3"},{"bufferView":3,"byteOffset":0,"componentType":5126,"count":561,"type":"VEC2"}],"asset":{"generator":"FBX2glTF v0.13.0","version":"2.0"},"bufferViews":[{"buffer":0,"byteLength":4002,"byteOffset":0,"target":34963},{"buffer":0,"byteLength":6732,"byteOffset":4004,"target":34962},{"buffer":0,"byteLength":6732,"byteOffset":10736,"target":34962},{"buffer":0,"byteLength":4488,"byteOffset":17468,"target":34962}],"buffers":[{"byteLength":21956,"uri":"Trash bin.bin"}],"images":[{"name":"Trash bin_Normal","uri":"textures/Trash bin_Normal.png"},{"name":"Trash bin_AlbedoTransparency","uri":"textures/Trash bin_AlbedoTransparency.png"}],"materials":[{"alphaMode":"OPAQUE","doubleSided":false,"extras":{"fromFBX":{"isTruePBR":false,"shadingModel":"Phong"}},"name":"Trash bin","normalTexture":{"index":0,"texCoord":0},"pbrMetallicRoughness":{"baseColorFactor":[1,1,1,1],"baseColorTexture":{"index":1,"texCoord":0},"metallicFactor":0.400000005960464,"roughnessFactor":0.272165536880493}}],"meshes":[{"name":"trash bin","primitives":[{"attributes":{"NORMAL":2,"POSITION":1,"TEXCOORD_0":3},"indices":0,"material":0,"mode":4}]}],"nodes":[{"mesh":0,"name":"trash bin","originalUnits":0.00999999977648258,"pivot":[0,0,0],"rotation":[0,0,0,1],"scale":[1,1,1],"translation":[0,0,0]}],"samplers":[{}],"scene":0,"scenes":[{"name":"Root Scene","nodes":[0]}],"textures":[{"name":"normalmap_texture","sampler":0,"source":0},{"name":"base_color_texture","sampler":0,"source":1}]}